<svg id="SvgjsSvg1016" xmlns="http://www.w3.org/2000/svg" version="1.1" xmlns:xlink="http://www.w3.org/1999/xlink" xmlns:svgjs="http://svgjs.com/svgjs" width="64" height="64"><defs id="SvgjsDefs1017"/><path id="SvgjsPath1018" d="M50 3441C50 3423.32689 64.32689 3409 82 3409C99.67311000000001 3409 114 3423.32689 114 3441C114 3458.67311 99.67311 3473 82 3473C64.32688999999999 3473 50 3458.67311 50 3441Z " fill="#fff" fill-opacity="1" transform="matrix(1,0,0,1,-50,-3409)"/><path id="SvgjsPath1019" d="M93.2475 3442.6L85.5675 3450.2999999999997C84.9075 3450.9599999999996 83.8275 3450.9599999999996 83.16749999999999 3450.2999999999997C82.5075 3449.64 82.5075 3448.56 83.16749999999999 3447.8999999999996L87.96749999999999 3443.0999999999995L71.69749999999999 3443.0999999999995C70.7575 3443.0999999999995 69.99749999999999 3442.3399999999992 69.99749999999999 3441.3999999999996C69.99749999999999 3440.4599999999996 70.7575 3439.7 71.69749999999999 3439.7L87.96749999999999 3439.7L83.16749999999999 3434.8999999999996C82.5075 3434.2299999999996 82.5075 3433.16 83.16749999999999 3432.4999999999995C83.49749999999999 3432.1699999999996 83.93749999999999 3431.9999999999995 84.36749999999999 3431.9999999999995C84.7975 3431.9999999999995 85.2375 3432.1699999999996 85.5675 3432.4999999999995L93.2475 3440.1999999999994C93.9175 3440.859999999999 93.9175 3441.939999999999 93.2475 3442.5999999999995L93.2475 3442.5999999999995Z " fill="#000" fill-opacity="0.5" transform="matrix(1,0,0,1,-50,-3409)"/></svg>